<?xml version="1.0" encoding="UTF-8" standalone="no"?>
<!DOCTYPE svg PUBLIC "-//W3C//DTD SVG 1.1//EN" "http://www.w3.org/Graphics/SVG/1.1/DTD/svg11.dtd">
<svg width="100%" height="100%" viewBox="0 0 187.5 56.25" version="1.0" xmlns="http://www.w3.org/2000/svg" xmlns:xlink="http://www.w3.org/1999/xlink" xml:space="preserve" xmlns:serif="http://www.serif.com/" style="fill-rule:evenodd;clip-rule:evenodd;stroke-linejoin:round;stroke-miterlimit:2;">
    <g fill="#000000">
        <!-- Dot -->
        <path d="M 14.69621 40.939211 C 14.69621 39.368895 13.43058 37.048583 11.86027 37.048583 C 10.28996 37.048583 9.016515 39.368895 9.016515 40.939211 C 9.016515 42.462649 10.28996 43.822024 11.86027 43.822024 C 13.43058 43.822024 14.69621 42.462649 14.69621 40.939211 Z"/>
        <!-- S -->
        <path d="M 56.451165 13.361086 L 29.380855 13.361086 C 24.880855 13.361086 20.466515 17.009524 20.466515 21.548586 L 20.466515 23.072024 C 20.466515 27.954836 24.458390 31.220461 29.380855 31.220461 L 47.451165 31.259524 C 49.529290 31.259524 50.591515 32.150149 50.591515 33.978274 L 50.591515 35.548586 C 50.591515 37.072024 48.982415 38.345461 47.451165 38.345461 L 20.380855 38.345461 L 20.380855 43.782961 L 47.451165 43.782961 C 51.904290 43.782961 56.318640 40.212649 56.318640 35.548586 L 56.318640 33.978274 C 56.318640 29.181399 52.333390 25.829836 47.451165 25.829836 L 29.380855 25.790774 C 27.302730 25.790774 26.240515 24.900149 26.240515 23.072024 L 26.240515 21.548586 C 26.240515 20.064211 27.849605 18.790774 29.380855 18.790774 L 56.451165 18.790774 Z"/>
        <!-- A -->
        <path d="M 91.405175 21.587649 C 90.000730 16.118899 87.030175 13.400149 82.491175 13.400149 L 74.772140 13.400149 C 70.225265 13.400149 67.303390 16.118899 65.905175 21.587649 L 60.170890 43.822024 L 66.280175 43.822024 L 72.014640 21.587649 C 72.475265 19.767336 73.537490 18.829836 75.147140 18.829836 L 82.155175 18.829836 C 83.678390 18.829836 84.694015 19.767336 85.209640 21.587649 L 86.350265 25.790774 L 73.201825 25.790774 L 71.881515 31.392336 L 87.834640 31.392336 L 91.022140 43.822024 L 97.131515 43.822024 Z"/>
        <!-- G -->
        <path d="M 137.298665 34.103274 C 137.298665 29.564211 132.970540 25.876711 128.431540 25.876711 L 110.446915 25.876711 L 110.446915 31.345461 L 128.431540 31.345461 C 129.962790 31.345461 131.619290 32.579836 131.619290 34.103274 L 131.619290 35.548586 C 131.619290 37.368899 130.557075 38.267336 128.431540 38.267336 L 110.446915 38.267336 C 108.368790 38.267336 107.306575 37.368899 107.306575 35.548586 L 107.306575 21.548586 C 107.306575 20.064211 108.915665 18.790774 110.446915 18.790774 L 136.837540 18.790774 L 136.837540 13.361086 L 110.446915 13.361086 C 105.946915 13.361086 101.532575 17.009524 101.532575 21.548586 L 101.532575 35.548586 C 101.532575 40.384274 105.524450 43.782961 110.446915 43.782961 L 128.431540 43.782961 C 133.313765 43.782961 137.298665 40.384274 137.298665 35.548586 Z"/>
        <!-- A -->
        <path d="M 172.47140 21.587649 C 171.06696 16.118899 168.09640 13.400149 163.55740 13.400149 L 155.83835 13.400149 C 151.29145 13.400149 148.36960 16.118899 146.97140 21.587649 L 141.23710 43.822024 L 147.34640 43.822024 L 153.08085 21.587649 C 153.54150 19.767336 154.60370 18.829836 156.21335 18.829836 L 163.22140 18.829836 C 164.74460 18.829836 165.76025 19.767336 166.27585 21.587649 L 167.41650 25.790774 L 154.26805 25.790774 L 152.94775 31.392336 L 168.90085 31.392336 L 172.08835 43.822024 L 178.19775 43.822024 Z"/>
    </g>
</svg>
