<?xml version="1.0" encoding="UTF-8" standalone="no"?>
<svg xmlns="http://www.w3.org/2000/svg" xmlns:xlink="http://www.w3.org/1999/xlink" viewBox="0 0 375 112.5" version="1.0">
    <g fill="#000000">
        <!-- Dot -->
        <path d="M 29.39241 81.878422 C 29.39241 78.73779 26.86116 76.097165 23.72053 76.097165 C 20.57991 76.097165 18.03303 78.73779 18.03303 81.878422 C 18.03303 84.925297 20.57991 87.644047 23.72053 87.644047 C 26.86116 87.644047 29.39241 84.925297 29.39241 81.878422 Z"/>
        <!-- S -->
        <path d="M 112.90233 26.722172 L 58.76171 26.722172 C 49.76171 26.722172 40.93303 34.019047 40.93303 43.097172 L 40.93303 46.144047 C 40.93303 55.909672 48.91678 62.440922 58.76171 62.440922 L 94.90233 62.519047 C 99.05858 62.519047 101.18303 64.300297 101.18303 67.956547 L 101.18303 71.097172 C 101.18303 74.144047 97.96483 76.690922 94.90233 76.690922 L 40.76171 76.690922 L 40.76171 87.565922 L 94.90233 87.565922 C 103.80858 87.565922 112.63728 80.425297 112.63728 71.097172 L 112.63728 67.956547 C 112.63728 58.362797 104.66678 51.659672 94.90233 51.659672 L 58.76171 51.581547 C 54.60546 51.581547 52.48103 49.800297 52.48103 46.144047 L 52.48103 43.097172 C 52.48103 40.128422 55.69921 37.581547 58.76171 37.581547 L 112.90233 37.581547 Z"/>
        <!-- A -->
        <path d="M 182.81035 43.175297 C 180.00146 32.237797 174.06035 26.800297 164.98235 26.800297 L 149.54428 26.800297 C 140.45053 26.800297 134.60678 32.237797 131.81035 43.175297 L 120.34178 87.644047 L 132.56035 87.644047 L 144.02928 43.175297 C 144.95053 39.534672 147.07498 37.659672 150.29428 37.659672 L 164.31035 37.659672 C 167.35678 37.659672 169.38803 39.534672 170.41928 43.175297 L 172.70053 51.581547 L 146.40365 51.581547 L 143.76303 62.784672 L 175.66928 62.784672 L 182.04428 87.644047 L 194.26303 87.644047 Z"/>
        <!-- G -->
        <path d="M 274.59733 68.206547 C 274.59733 59.128422 265.94108 51.753422 256.86308 51.753422 L 220.89383 51.753422 L 220.89383 62.690922 L 256.86308 62.690922 C 259.92558 62.690922 263.23858 65.159672 263.23858 68.206547 L 263.23858 71.097172 C 263.23858 74.737797 261.11415 76.534672 256.86308 76.534672 L 220.89383 76.534672 C 216.73758 76.534672 214.61315 74.737797 214.61315 71.097172 L 214.61315 43.097172 C 214.61315 40.128422 217.83133 37.581547 220.89383 37.581547 L 273.67508 37.581547 L 273.67508 26.722172 L 220.89383 26.722172 C 211.89383 26.722172 203.06515 34.019047 203.06515 43.097172 L 203.06515 71.097172 C 203.06515 80.768547 211.04890 87.565922 220.89383 87.565922 L 256.86308 87.565922 C 266.62753 87.565922 274.59733 80.768547 274.59733 71.097172 Z"/>
        <!-- A -->
        <path d="M 344.9428 43.175297 C 342.1339 32.237797 336.1928 26.800297 327.1148 26.800297 L 311.6767 26.800297 C 302.5829 26.800297 296.7392 32.237797 293.9428 43.175297 L 282.4742 87.644047 L 294.6928 87.644047 L 306.1617 43.175297 C 307.083 39.534672 309.2074 37.659672 312.4267 37.659672 L 326.4428 37.659672 C 329.4892 37.659672 331.5205 39.534672 332.5517 43.175297 L 334.833 51.581547 L 308.5361 51.581547 L 305.8955 62.784672 L 337.8017 62.784672 L 344.1767 87.644047 L 356.3955 87.644047 Z"/>
    </g>
</svg>
