<?xml version="1.0" encoding="UTF-8" standalone="no"?>
<svg xmlns="http://www.w3.org/2000/svg" xmlns:xlink="http://www.w3.org/1999/xlink" viewBox="0 0 281.25 84.375" version="1.0">
    <g fill="#FFFFFF">
        <!-- Dot -->
        <path d="M 22.04431 61.408817 C 22.04431 59.053343 20.14587 55.572874 17.79040 55.572874 C 15.43494 55.572874 13.52477 59.053343 13.52477 61.408817 C 13.52477 63.693974 15.43494 65.733036 17.79040 65.733036 C 20.14587 65.733036 22.04431 63.693974 22.04431 61.408817 Z"/>
        <!-- S -->
        <path d="M 84.676748 20.041629 L 44.071283 20.041629 C 37.321283 20.041629 30.699773 25.514286 30.699773 32.322879 L 30.699773 34.608036 C 30.699773 41.932254 36.687585 46.830692 44.071283 46.830692 L 71.176748 46.889286 C 74.293935 46.889286 75.887273 48.225224 75.887273 50.967411 L 75.887273 53.322879 C 75.887273 55.608036 73.473623 57.518192 71.176748 57.518192 L 30.571283 57.518192 L 30.571283 65.674442 L 71.176748 65.674442 C 77.856435 65.674442 84.477935 60.318974 84.477935 53.322879 L 84.477935 50.967411 C 84.477935 43.772099 78.500085 38.744754 71.176748 38.744754 L 44.071283 38.686161 C 40.954095 38.686161 39.360758 37.350224 39.360758 34.608036 L 39.360758 32.322879 C 39.360758 30.096317 41.774408 28.186161 44.071283 28.186161 L 84.676748 28.186161 Z"/>
        <!-- A -->
        <path d="M 137.107763 32.381474 C 135.001095 24.178349 130.545263 20.100224 123.736763 20.100224 L 112.158210 20.100224 C 105.337898 20.100224 100.955085 24.178349 98.857763 32.381474 L 90.256335 65.733036 L 99.420263 65.733036 L 108.021960 32.381474 C 108.712898 29.651004 110.306235 28.244754 112.720710 28.244754 L 123.232763 28.244754 C 125.517585 28.244754 127.041023 29.651004 127.814460 32.381474 L 129.525398 38.686161 L 109.802738 38.686161 L 107.822273 47.088504 L 131.751960 47.088504 L 136.533210 65.733036 L 145.697273 65.733036 Z"/>
        <!-- G -->
        <path d="M 205.947998 51.154911 C 205.947998 44.346317 199.455810 38.815067 192.647310 38.815067 L 165.670373 38.815067 L 165.670373 47.018192 L 192.647310 47.018192 C 194.944185 47.018192 197.428935 48.869754 197.428935 51.154911 L 197.428935 53.322879 C 197.428935 56.053349 195.835613 57.401004 192.647310 57.401004 L 165.670373 57.401004 C 162.553185 57.401004 160.959863 56.053349 160.959863 53.322879 L 160.959863 32.322879 C 160.959863 30.096317 163.373498 28.186161 165.670373 28.186161 L 205.256310 28.186161 L 205.256310 20.041629 L 165.670373 20.041629 C 158.920373 20.041629 152.298873 25.514286 152.298873 32.322879 L 152.298873 53.322879 C 152.298873 60.576411 158.286685 65.674442 165.670373 65.674442 L 192.647310 65.674442 C 199.970648 65.674442 205.947998 60.576411 205.947998 53.322879 Z"/>
        <!-- A -->
        <path d="M 258.70710 32.381474 C 256.60043 24.178349 252.14460 20.100224 245.33610 20.100224 L 233.75753 20.100224 C 226.93718 20.100224 222.55440 24.178349 220.45710 32.381474 L 211.85565 65.733036 L 221.01960 65.733036 L 229.62128 32.381474 C 230.31225 29.651004 231.90555 28.244754 234.32003 28.244754 L 244.83210 28.244754 C 247.11690 28.244754 248.64038 29.651004 249.41378 32.381474 L 251.12475 38.686161 L 231.40208 38.686161 L 229.42163 47.088504 L 253.35128 47.088504 L 258.13253 65.733036 L 267.29663 65.733036 Z"/>
    </g>
</svg>
